<?xml version="1.0" encoding="iso-8859-1"?>
<!-- Generator: Adobe Illustrator 19.0.0, SVG Export Plug-In . SVG Version: 6.00 Build 0)  -->
<svg xmlns="http://www.w3.org/2000/svg" xmlns:xlink="http://www.w3.org/1999/xlink" version="1.1" id="Layer_1" x="0px" y="0px" viewBox="0 0 329.991 329.991" style="enable-background:new 0 0 329.991 329.991;" xml:space="preserve" width="512px" height="512px">
<path id="XMLID_443_" d="M251.996,227.996c0-32.719-18.158-61.272-44.923-76.125c16.475-14.312,26.923-35.39,26.923-58.875  c0-38.929-28.668-71.286-66-77.075V15c0-8.284-6.716-15-15-15c-8.284,0-15,6.716-15,15v0.004h-45c-8.284,0-15,6.716-15,15v125.991  c0,0.002,0,0.003,0,0.005c0,0.002,0,0.004,0,0.005v143.99c0,8.284,6.716,15,15,15h45c0.003,8.282,6.717,14.996,15,14.996  c8.284,0,15-6.716,15-15v-0.053C214.583,313.351,251.996,274.963,251.996,227.996z M203.996,92.996c0,22.325-15.32,41.139-36,46.481  V46.521C188.674,51.864,203.996,70.671,203.996,92.996z M107.996,45.004h30v95.991h-30V45.004z M107.996,171.006h30v113.99h-30  V171.006z M167.996,284.916V171.083c30.039,1.567,54,26.491,54,56.913C221.996,258.419,198.036,283.35,167.996,284.916z" fill="#006DF0"/>
<g>
</g>
<g>
</g>
<g>
</g>
<g>
</g>
<g>
</g>
<g>
</g>
<g>
</g>
<g>
</g>
<g>
</g>
<g>
</g>
<g>
</g>
<g>
</g>
<g>
</g>
<g>
</g>
<g>
</g>
</svg>
