<?xml version="1.0" encoding="iso-8859-1"?>
<!-- Generator: Adobe Illustrator 19.0.0, SVG Export Plug-In . SVG Version: 6.00 Build 0)  -->
<svg xmlns="http://www.w3.org/2000/svg" xmlns:xlink="http://www.w3.org/1999/xlink" version="1.1" id="Layer_1" x="0px" y="0px" viewBox="0 0 268.988 268.988" style="enable-background:new 0 0 268.988 268.988;" xml:space="preserve" width="512px" height="512px">
<g id="XMLID_21_">
	<path id="XMLID_22_" d="M139.896,0c-8.284,0-15,6.716-15,15v60.191c0,24.924-20.277,45.201-45.201,45.201H34.494V15   c0-8.284-6.716-15-15-15c-8.284,0-15,6.716-15,15v237.994c0,8.284,6.716,15,15,15c8.284,0,15-6.716,15-15V150.4h45.201   c0.142,0,0.283-0.002,0.424-0.006c24.729,0.229,44.777,20.417,44.777,45.199v57.4c0,8.284,6.716,15,15,15c8.284,0,15-6.716,15-15   v-57.4c0-24.597-11.871-46.473-30.184-60.201c18.313-13.729,30.184-35.604,30.184-60.201V15C154.896,6.716,148.181,0,139.896,0z" fill="#006DF0"/>
	<path id="XMLID_23_" d="M249.494,58.988c-13.152,0-25.396,3.938-35.638,10.681c-1.855-6.178-7.58-10.681-14.362-10.681   c-8.284,0-15,6.716-15,15v180c0,8.284,6.716,15,15,15c8.284,0,15-6.716,15-15v-130c0-19.299,15.701-35,35-35   c8.284,0,15-6.716,15-15C264.494,65.704,257.778,58.988,249.494,58.988z" fill="#006DF0"/>
</g>
<g>
</g>
<g>
</g>
<g>
</g>
<g>
</g>
<g>
</g>
<g>
</g>
<g>
</g>
<g>
</g>
<g>
</g>
<g>
</g>
<g>
</g>
<g>
</g>
<g>
</g>
<g>
</g>
<g>
</g>
</svg>
